 <svg width="610" height="202" viewBox="0 0 610 202" fill="none" xmlns="http://www.w3.org/2000/svg">
    <path d="M241.84 69.448C238.725 69.448 235.909 68.9147 233.392 67.848C230.917 66.7813 228.955 65.2453 227.504 63.24C226.053 61.2347 225.307 58.8667 225.264 56.136H234.864C234.992 57.9707 235.632 59.4213 236.784 60.488C237.979 61.5547 239.6 62.088 241.648 62.088C243.739 62.088 245.381 61.5973 246.576 60.616C247.771 59.592 248.368 58.2693 248.368 56.648C248.368 55.3253 247.963 54.2373 247.152 53.384C246.341 52.5307 245.317 51.8693 244.08 51.4C242.885 50.888 241.221 50.3333 239.088 49.736C236.187 48.8827 233.819 48.0507 231.984 47.24C230.192 46.3867 228.635 45.128 227.312 43.464C226.032 41.7573 225.392 39.496 225.392 36.68C225.392 34.0347 226.053 31.7307 227.376 29.768C228.699 27.8053 230.555 26.312 232.944 25.288C235.333 24.2213 238.064 23.688 241.136 23.688C245.744 23.688 249.477 24.8187 252.336 27.08C255.237 29.2987 256.837 32.4133 257.136 36.424H247.28C247.195 34.888 246.533 33.6293 245.296 32.648C244.101 31.624 242.501 31.112 240.496 31.112C238.747 31.112 237.339 31.56 236.272 32.456C235.248 33.352 234.736 34.6533 234.736 36.36C234.736 37.5547 235.12 38.5573 235.888 39.368C236.699 40.136 237.68 40.776 238.832 41.288C240.027 41.7573 241.691 42.312 243.824 42.952C246.725 43.8053 249.093 44.6587 250.928 45.512C252.763 46.3653 254.341 47.6453 255.664 49.352C256.987 51.0587 257.648 53.2987 257.648 56.072C257.648 58.4613 257.029 60.68 255.792 62.728C254.555 64.776 252.741 66.4187 250.352 67.656C247.963 68.8507 245.125 69.448 241.84 69.448ZM297.992 38.152C297.992 40.5413 297.416 42.7813 296.264 44.872C295.155 46.9627 293.384 48.648 290.952 49.928C288.563 51.208 285.533 51.848 281.864 51.848H274.376V69H265.416V24.328H281.864C285.32 24.328 288.264 24.9253 290.696 26.12C293.128 27.3147 294.941 28.9573 296.136 31.048C297.373 33.1387 297.992 35.5067 297.992 38.152ZM281.48 44.616C283.955 44.616 285.789 44.0613 286.984 42.952C288.179 41.8 288.776 40.2 288.776 38.152C288.776 33.8 286.344 31.624 281.48 31.624H274.376V44.616H281.48ZM313.314 31.56V42.76H328.354V49.864H313.314V61.704H330.274V69H304.354V24.264H330.274V31.56H313.314ZM336.24 46.6C336.24 42.2053 337.221 38.28 339.184 34.824C341.189 31.3253 343.899 28.616 347.312 26.696C350.768 24.7333 354.629 23.752 358.896 23.752C363.888 23.752 368.261 25.032 372.016 27.592C375.771 30.152 378.395 33.6933 379.888 38.216H369.584C368.56 36.0827 367.109 34.4827 365.232 33.416C363.397 32.3493 361.264 31.816 358.832 31.816C356.229 31.816 353.904 32.4347 351.856 33.672C349.851 34.8667 348.272 36.5733 347.12 38.792C346.011 41.0107 345.456 43.6133 345.456 46.6C345.456 49.544 346.011 52.1467 347.12 54.408C348.272 56.6267 349.851 58.3547 351.856 59.592C353.904 60.7867 356.229 61.384 358.832 61.384C361.264 61.384 363.397 60.8507 365.232 59.784C367.109 58.6747 368.56 57.0533 369.584 54.92H379.888C378.395 59.4853 375.771 63.048 372.016 65.608C368.304 68.1253 363.931 69.384 358.896 69.384C354.629 69.384 350.768 68.424 347.312 66.504C343.899 64.5413 341.189 61.832 339.184 58.376C337.221 54.92 336.24 50.9947 336.24 46.6ZM396.501 24.328V69H387.541V24.328H396.501ZM432.746 60.488H414.954L412.01 69H402.602L418.666 24.264H429.098L445.162 69H435.69L432.746 60.488ZM430.314 53.32L423.85 34.632L417.385 53.32H430.314ZM460.126 61.896H474.846V69H451.166V24.328H460.126V61.896ZM247.152 135.448C242.971 135.448 239.131 134.467 235.632 132.504C232.133 130.541 229.36 127.832 227.312 124.376C225.264 120.877 224.24 116.931 224.24 112.536C224.24 108.184 225.264 104.28 227.312 100.824C229.36 97.3253 232.133 94.5947 235.632 92.632C239.131 90.6693 242.971 89.688 247.152 89.688C251.376 89.688 255.216 90.6693 258.672 92.632C262.171 94.5947 264.923 97.3253 266.928 100.824C268.976 104.28 270 108.184 270 112.536C270 116.931 268.976 120.877 266.928 124.376C264.923 127.832 262.171 130.541 258.672 132.504C255.173 134.467 251.333 135.448 247.152 135.448ZM247.152 127.448C249.84 127.448 252.208 126.851 254.256 125.656C256.304 124.419 257.904 122.669 259.056 120.408C260.208 118.147 260.784 115.523 260.784 112.536C260.784 109.549 260.208 106.947 259.056 104.728C257.904 102.467 256.304 100.739 254.256 99.544C252.208 98.3493 249.84 97.752 247.152 97.752C244.464 97.752 242.075 98.3493 239.984 99.544C237.936 100.739 236.336 102.467 235.184 104.728C234.032 106.947 233.456 109.549 233.456 112.536C233.456 115.523 234.032 118.147 235.184 120.408C236.336 122.669 237.936 124.419 239.984 125.656C242.075 126.851 244.464 127.448 247.152 127.448ZM299.706 135L289.85 117.592H285.626V135H276.666V90.328H293.434C296.89 90.328 299.834 90.9467 302.266 92.184C304.698 93.3787 306.511 95.0213 307.706 97.112C308.943 99.16 309.562 101.464 309.562 104.024C309.562 106.968 308.709 109.635 307.002 112.024C305.295 114.371 302.757 115.992 299.386 116.888L310.074 135H299.706ZM285.626 110.872H293.114C295.546 110.872 297.359 110.296 298.554 109.144C299.749 107.949 300.346 106.307 300.346 104.216C300.346 102.168 299.749 100.589 298.554 99.48C297.359 98.328 295.546 97.752 293.114 97.752H285.626V110.872ZM333.282 90.328C337.975 90.328 342.093 91.2453 345.634 93.08C349.218 94.9147 351.97 97.5387 353.89 100.952C355.853 104.323 356.834 108.248 356.834 112.728C356.834 117.208 355.853 121.133 353.89 124.504C351.97 127.832 349.218 130.413 345.634 132.248C342.093 134.083 337.975 135 333.282 135H317.666V90.328H333.282ZM332.962 127.384C337.655 127.384 341.282 126.104 343.842 123.544C346.402 120.984 347.682 117.379 347.682 112.728C347.682 108.077 346.402 104.451 343.842 101.848C341.282 99.2027 337.655 97.88 332.962 97.88H326.626V127.384H332.962ZM372.501 97.56V108.76H387.541V115.864H372.501V127.704H389.461V135H363.541V90.264H389.461V97.56H372.501ZM420.644 135L410.788 117.592H406.564V135H397.604V90.328H414.372C417.828 90.328 420.772 90.9467 423.204 92.184C425.636 93.3787 427.449 95.0213 428.644 97.112C429.881 99.16 430.5 101.464 430.5 104.024C430.5 106.968 429.646 109.635 427.94 112.024C426.233 114.371 423.694 115.992 420.324 116.888L431.012 135H420.644ZM406.564 110.872H414.052C416.484 110.872 418.297 110.296 419.492 109.144C420.686 107.949 421.284 106.307 421.284 104.216C421.284 102.168 420.686 100.589 419.492 99.48C418.297 98.328 416.484 97.752 414.052 97.752H406.564V110.872Z" fill="black"/>
    <path d="M235.248 165.32C237.024 165.32 238.576 165.664 239.904 166.352C241.248 167.024 242.28 168 243 169.28C243.736 170.544 244.104 172.024 244.104 173.72C244.104 175.416 243.736 176.888 243 178.136C242.28 179.384 241.248 180.344 239.904 181.016C238.576 181.672 237.024 182 235.248 182H229.8V165.32H235.248ZM235.248 179.768C237.2 179.768 238.696 179.24 239.736 178.184C240.776 177.128 241.296 175.64 241.296 173.72C241.296 171.784 240.776 170.272 239.736 169.184C238.696 168.096 237.2 167.552 235.248 167.552H232.536V179.768H235.248ZM249.552 167.528V172.424H255.312V174.656H249.552V179.768H256.032V182H246.816V165.296H256.032V167.528H249.552ZM271.066 170.288C271.066 171.136 270.866 171.936 270.466 172.688C270.066 173.44 269.426 174.056 268.546 174.536C267.666 175 266.538 175.232 265.162 175.232H262.138V182H259.402V165.32H265.162C266.442 165.32 267.522 165.544 268.402 165.992C269.298 166.424 269.962 167.016 270.394 167.768C270.842 168.52 271.066 169.36 271.066 170.288ZM265.162 173C266.202 173 266.978 172.768 267.49 172.304C268.002 171.824 268.258 171.152 268.258 170.288C268.258 168.464 267.226 167.552 265.162 167.552H262.138V173H265.162ZM276.411 167.528V172.424H282.171V174.656H276.411V179.768H282.891V182H273.675V165.296H282.891V167.528H276.411ZM291.709 165.32C293.485 165.32 295.037 165.664 296.365 166.352C297.709 167.024 298.741 168 299.461 169.28C300.197 170.544 300.565 172.024 300.565 173.72C300.565 175.416 300.197 176.888 299.461 178.136C298.741 179.384 297.709 180.344 296.365 181.016C295.037 181.672 293.485 182 291.709 182H286.261V165.32H291.709ZM291.709 179.768C293.661 179.768 295.157 179.24 296.197 178.184C297.237 177.128 297.757 175.64 297.757 173.72C297.757 171.784 297.237 170.272 296.197 169.184C295.157 168.096 293.661 167.552 291.709 167.552H288.997V179.768H291.709ZM308.599 173.624C308.599 171.992 308.975 170.528 309.727 169.232C310.495 167.936 311.527 166.928 312.823 166.208C314.135 165.472 315.567 165.104 317.119 165.104C318.895 165.104 320.471 165.544 321.847 166.424C323.239 167.288 324.247 168.52 324.871 170.12H321.583C321.151 169.24 320.551 168.584 319.783 168.152C319.015 167.72 318.127 167.504 317.119 167.504C316.015 167.504 315.031 167.752 314.167 168.248C313.303 168.744 312.623 169.456 312.127 170.384C311.647 171.312 311.407 172.392 311.407 173.624C311.407 174.856 311.647 175.936 312.127 176.864C312.623 177.792 313.303 178.512 314.167 179.024C315.031 179.52 316.015 179.768 317.119 179.768C318.127 179.768 319.015 179.552 319.783 179.12C320.551 178.688 321.151 178.032 321.583 177.152H324.871C324.247 178.752 323.239 179.984 321.847 180.848C320.471 181.712 318.895 182.144 317.119 182.144C315.551 182.144 314.119 181.784 312.823 181.064C311.527 180.328 310.495 179.312 309.727 178.016C308.975 176.72 308.599 175.256 308.599 173.624ZM338.129 178.592H331.145L329.945 182H327.089L333.065 165.296H336.233L342.209 182H339.329L338.129 178.592ZM337.361 176.36L334.649 168.608L331.913 176.36H337.361ZM347.544 179.792H353.184V182H344.808V165.32H347.544V179.792ZM365.528 178.592H358.544L357.344 182H354.488L360.464 165.296H363.632L369.608 182H366.728L365.528 178.592ZM364.76 176.36L362.048 168.608L359.312 176.36H364.76ZM381.134 173.432C382.03 173.592 382.79 174.064 383.414 174.848C384.038 175.632 384.35 176.52 384.35 177.512C384.35 178.36 384.126 179.128 383.678 179.816C383.246 180.488 382.614 181.024 381.782 181.424C380.95 181.808 379.982 182 378.878 182H372.206V165.32H378.566C379.702 165.32 380.678 165.512 381.494 165.896C382.31 166.28 382.926 166.8 383.342 167.456C383.758 168.096 383.966 168.816 383.966 169.616C383.966 170.576 383.71 171.376 383.198 172.016C382.686 172.656 381.998 173.128 381.134 173.432ZM374.942 172.328H378.326C379.222 172.328 379.918 172.128 380.414 171.728C380.926 171.312 381.182 170.72 381.182 169.952C381.182 169.2 380.926 168.616 380.414 168.2C379.918 167.768 379.222 167.552 378.326 167.552H374.942V172.328ZM378.638 179.768C379.566 179.768 380.294 179.544 380.822 179.096C381.35 178.648 381.614 178.024 381.614 177.224C381.614 176.408 381.334 175.76 380.774 175.28C380.214 174.8 379.47 174.56 378.542 174.56H374.942V179.768H378.638ZM397.379 178.592H390.395L389.195 182H386.339L392.315 165.296H395.483L401.459 182H398.579L397.379 178.592ZM396.611 176.36L393.899 168.608L391.163 176.36H396.611ZM412.722 182L408.882 175.328H406.794V182H404.058V165.32H409.818C411.098 165.32 412.178 165.544 413.058 165.992C413.954 166.44 414.618 167.04 415.05 167.792C415.498 168.544 415.722 169.384 415.722 170.312C415.722 171.4 415.402 172.392 414.762 173.288C414.138 174.168 413.17 174.768 411.858 175.088L415.986 182H412.722ZM406.794 173.144H409.818C410.842 173.144 411.61 172.888 412.122 172.376C412.65 171.864 412.914 171.176 412.914 170.312C412.914 169.448 412.658 168.776 412.146 168.296C411.634 167.8 410.858 167.552 409.818 167.552H406.794V173.144ZM421.862 179.624H429.614V182H418.622V179.864L426.35 167.696H418.622V165.32H429.614V167.456L421.862 179.624ZM440.213 182.168C438.661 182.168 437.229 181.808 435.917 181.088C434.621 180.352 433.589 179.336 432.821 178.04C432.069 176.728 431.693 175.256 431.693 173.624C431.693 171.992 432.069 170.528 432.821 169.232C433.589 167.936 434.621 166.928 435.917 166.208C437.229 165.472 438.661 165.104 440.213 165.104C441.781 165.104 443.213 165.472 444.509 166.208C445.821 166.928 446.853 167.936 447.605 169.232C448.357 170.528 448.733 171.992 448.733 173.624C448.733 175.256 448.357 176.728 447.605 178.04C446.853 179.336 445.821 180.352 444.509 181.088C443.213 181.808 441.781 182.168 440.213 182.168ZM440.213 179.792C441.317 179.792 442.301 179.544 443.165 179.048C444.029 178.536 444.701 177.816 445.181 176.888C445.677 175.944 445.925 174.856 445.925 173.624C445.925 172.392 445.677 171.312 445.181 170.384C444.701 169.456 444.029 168.744 443.165 168.248C442.301 167.752 441.317 167.504 440.213 167.504C439.109 167.504 438.125 167.752 437.261 168.248C436.397 168.744 435.717 169.456 435.221 170.384C434.741 171.312 434.501 172.392 434.501 173.624C434.501 174.856 434.741 175.944 435.221 176.888C435.717 177.816 436.397 178.536 437.261 179.048C438.125 179.544 439.109 179.792 440.213 179.792ZM465.129 182H462.393L454.161 169.544V182H451.425V165.296H454.161L462.393 177.728V165.296H465.129V182Z" fill="#0647A7"/>
    <path d="M222 149H476" stroke="black" stroke-width="5" stroke-linecap="round"/>
    <path d="M113.368 1.5C120.036 1.52695 125.964 3.11382 130.258 7.05469L130.668 7.44336C134.202 10.8991 137.344 14.2677 140.469 17.459C143.569 20.6255 146.621 23.5832 149.866 26.0771C156.211 30.9529 163.286 34.0485 172.973 33.7188L173.918 33.6768C186.687 32.9611 194.464 37.2671 198.05 43.4014C201.556 49.3991 201.326 57.5924 197.18 65.6455L196.767 66.4238C190.986 76.9909 188.222 85.1006 188.071 91.9512C187.923 98.6783 190.295 104.021 194.413 109.11L194.817 109.602C205.289 122.166 200.766 140.162 184.866 146.336L184.101 146.621C169.034 151.992 162.666 164.875 158.228 176.206L157.804 177.298C153.24 189.152 141.603 196.94 128.747 199.544C115.881 202.15 102.201 199.482 93.6816 190.945H93.6826C86.6555 183.903 80.114 179.374 71.7881 177.08C64.0298 174.942 54.8509 174.781 42.4893 176.126L39.9746 176.415C26.9736 177.983 15.8634 171.818 10.2695 162.93C4.7942 154.23 4.57916 142.913 13.1533 133.469L13.5684 133.021C22.418 123.641 26.7172 112.466 25.7148 101.091C24.7443 90.0774 18.8238 79.0846 7.66016 69.5156L6.56348 68.5947C3.37246 65.9657 1.8122 62.7364 1.54297 59.2979C1.27114 55.8253 2.31048 52.0295 4.53027 48.3428C8.83682 41.1904 17.4497 34.6937 28.4854 32.2588L29.5615 32.0361C47.1678 28.6219 67.4592 16.89 74.8779 12.8193L76.1855 12.1123C84.716 7.60193 99.7045 1.63717 112.749 1.50195L113.368 1.5ZM188.676 168.632C193.391 168.478 197.299 170.639 198.584 173.699C199.769 176.52 199.04 180.977 192.815 186.371L192.195 186.896C187.835 190.508 184.121 191.777 181.297 191.72C178.52 191.663 176.432 190.329 175.171 188.31C172.659 184.287 173.308 177.134 179.897 171.915L180.216 171.668C182.687 169.789 185.474 168.846 188.144 168.659L188.676 168.632ZM104.569 31.6172C65.593 31.6172 33.9131 63.3741 33.9131 102.448C33.9133 141.521 65.5927 173.292 104.569 173.292C143.546 173.292 175.225 141.521 175.226 102.448C175.226 63.3754 143.546 31.6172 104.569 31.6172ZM104.569 42.7402C137.503 42.7402 164.126 69.4157 164.126 102.448C164.126 135.482 137.502 162.169 104.569 162.169C71.6362 162.169 45.0275 135.482 45.0273 102.448C45.0273 69.4139 71.6354 42.7402 104.569 42.7402ZM104.65 142.27C100.506 142.27 97.1494 145.642 97.1494 149.787C97.1495 153.932 100.506 157.305 104.65 157.305C108.795 157.305 112.151 153.933 112.151 149.787C112.151 145.642 108.794 142.27 104.65 142.27ZM63.2822 123.522H79.0918V128.265H63.2822V139.389H145.856V128.265H130.996V123.522H145.856V112.507H63.2822V123.522ZM119.894 123.522V128.265H110.119V123.522H119.894ZM99.0186 123.522V128.265H90.1924V123.522H99.0186ZM99.0186 53.7793L85.627 57.8574L80.9141 59.293L85.627 60.7275L99.0186 64.8037V71.9238L98.6309 71.6699L98.6396 74.4561V74.6064L98.6553 79.8555L99.0186 79.2676V107.385H109.876V64.7305L123.023 60.7266L127.736 59.292L123.023 57.8574L110.12 53.9297V48.0811H99.0186V53.7793ZM131.111 65.6172C126.399 65.6062 121.295 66.736 115.875 69.1113L114.978 69.5049V82.0059L117.184 80.8281C123.549 77.4314 128.675 76.4768 132.468 76.792L132.831 76.8262C137.09 77.2806 139.886 79.2196 141.718 81.998L141.893 82.2695C145.501 88.0426 144.767 97.9455 136.207 104.707L132.817 107.385H149.044L149.492 106.755C156.178 97.3691 156.785 85.5337 151.558 76.7744L151.305 76.3604C147.877 70.8762 142.016 66.8463 134.727 65.8604L134.017 65.7744C133.308 65.6986 132.583 65.649 131.849 65.6279L131.111 65.6172ZM93.5391 69.2314L92.6211 68.8447C87.7652 66.7986 83.1645 65.7423 78.8799 65.627L78.0283 65.6172C77.2877 65.6186 76.5618 65.6498 75.8467 65.708L75.1357 65.7744C67.7545 66.5624 61.7705 70.4452 58.1865 75.834L57.8477 76.3604C52.3483 85.1581 52.8674 97.2208 59.6592 106.755L60.1074 107.385H76.3223L72.9326 104.707C64.505 98.0513 63.6621 88.3516 67.0801 82.543L67.2461 82.2695C69.0167 79.4374 71.7356 77.4248 75.8994 76.875L76.3066 76.8262C80.0141 76.4307 85.0635 77.2697 91.3516 80.5117L93.5391 81.6396V69.2314Z" fill="#E93030" stroke="black" stroke-width="3"/>
    <path d="M104.5 38.5C139.846 38.5 168.5 67.1538 168.5 102.5C168.5 137.846 139.846 166.5 104.5 166.5C69.1538 166.5 40.5 137.846 40.5 102.5C40.5 67.1538 69.1538 38.5 104.5 38.5Z" fill="white" stroke="black" stroke-width="3"/>
    <g filter="url(#filter0_d_995_14)">
    <mask id="path-6-outside-1_995_14" maskUnits="userSpaceOnUse" x="89" y="84" width="59" height="74" fill="black">
    <rect fill="white" x="89" y="84" width="59" height="74"/>
    <path d="M143.975 118.864L142.823 125.104C141.799 131.12 140.007 136.368 137.447 140.848C134.887 145.328 131.623 148.816 127.655 151.312C123.687 153.744 119.111 154.96 113.927 154.96C108.359 154.96 103.847 153.616 100.391 150.928C96.9993 148.176 94.6953 144.432 93.4793 139.696C92.2633 134.96 92.1673 129.648 93.1913 123.76L94.2473 117.52C95.3353 111.568 97.1593 106.352 99.7193 101.872C102.279 97.392 105.511 93.936 109.415 91.504C113.383 89.008 117.959 87.76 123.143 87.76C128.711 87.76 133.191 89.136 136.583 91.888C140.039 94.64 142.375 98.384 143.591 103.12C144.871 107.792 144.999 113.04 143.975 118.864ZM135.719 113.872C136.999 106.576 136.583 100.912 134.471 96.88C132.423 92.848 128.647 90.832 123.143 90.832C118.151 90.832 114.055 92.72 110.855 96.496C107.719 100.208 105.511 105.68 104.231 112.912L101.447 128.752C100.167 136.112 100.551 141.808 102.599 145.84C104.711 149.872 108.487 151.888 113.927 151.888C118.983 151.888 123.111 150 126.311 146.224C129.511 142.448 131.719 136.944 132.935 129.712L135.719 113.872Z"/>
    </mask>
    <path d="M143.975 118.864L142.823 125.104C141.799 131.12 140.007 136.368 137.447 140.848C134.887 145.328 131.623 148.816 127.655 151.312C123.687 153.744 119.111 154.96 113.927 154.96C108.359 154.96 103.847 153.616 100.391 150.928C96.9993 148.176 94.6953 144.432 93.4793 139.696C92.2633 134.96 92.1673 129.648 93.1913 123.76L94.2473 117.52C95.3353 111.568 97.1593 106.352 99.7193 101.872C102.279 97.392 105.511 93.936 109.415 91.504C113.383 89.008 117.959 87.76 123.143 87.76C128.711 87.76 133.191 89.136 136.583 91.888C140.039 94.64 142.375 98.384 143.591 103.12C144.871 107.792 144.999 113.04 143.975 118.864ZM135.719 113.872C136.999 106.576 136.583 100.912 134.471 96.88C132.423 92.848 128.647 90.832 123.143 90.832C118.151 90.832 114.055 92.72 110.855 96.496C107.719 100.208 105.511 105.68 104.231 112.912L101.447 128.752C100.167 136.112 100.551 141.808 102.599 145.84C104.711 149.872 108.487 151.888 113.927 151.888C118.983 151.888 123.111 150 126.311 146.224C129.511 142.448 131.719 136.944 132.935 129.712L135.719 113.872Z" fill="url(#paint0_linear_995_14)"/>
    <path d="M143.975 118.864L146.925 119.409L146.928 119.396L146.93 119.384L143.975 118.864ZM142.823 125.104L139.873 124.559L139.869 124.58L139.866 124.601L142.823 125.104ZM137.447 140.848L134.843 139.36L134.843 139.36L137.447 140.848ZM127.655 151.312L129.223 153.87L129.238 153.861L129.253 153.851L127.655 151.312ZM100.391 150.928L98.5011 153.258L98.5251 153.277L98.5494 153.296L100.391 150.928ZM93.1913 123.76L96.1469 124.274L96.1492 124.261L93.1913 123.76ZM94.2473 117.52L91.2961 116.981L91.2926 117L91.2893 117.019L94.2473 117.52ZM99.7193 101.872L97.1145 100.384L97.1145 100.384L99.7193 101.872ZM109.415 91.504L111.002 94.0504L111.013 94.0434L109.415 91.504ZM136.583 91.888L134.693 94.2177L134.704 94.2263L134.714 94.2348L136.583 91.888ZM143.591 103.12L140.686 103.866L140.692 103.889L140.698 103.913L143.591 103.12ZM135.719 113.872L138.674 114.391L138.674 114.39L135.719 113.872ZM134.471 96.88L131.797 98.2386L131.805 98.2554L131.814 98.272L134.471 96.88ZM110.855 96.496L108.567 94.5564L108.564 94.5599L110.855 96.496ZM104.231 112.912L101.277 112.389L101.277 112.393L104.231 112.912ZM101.447 128.752L98.4925 128.233L98.4916 128.238L101.447 128.752ZM102.599 145.84L99.9245 147.199L99.933 147.215L99.9418 147.232L102.599 145.84ZM126.311 146.224L124.023 144.284L124.023 144.284L126.311 146.224ZM132.935 129.712L129.981 129.193L129.979 129.204L129.977 129.215L132.935 129.712ZM143.975 118.864L141.025 118.319L139.873 124.559L142.823 125.104L145.773 125.649L146.925 119.409L143.975 118.864ZM142.823 125.104L139.866 124.601C138.89 130.332 137.2 135.235 134.843 139.36L137.447 140.848L140.052 142.336C142.815 137.501 144.708 131.908 145.781 125.607L142.823 125.104ZM137.447 140.848L134.843 139.36C132.502 143.456 129.568 146.565 126.058 148.773L127.655 151.312L129.253 153.851C133.678 151.067 137.273 147.2 140.052 142.336L137.447 140.848ZM127.655 151.312L126.088 148.754C122.644 150.865 118.623 151.96 113.927 151.96V154.96V157.96C119.6 157.96 124.731 156.623 129.223 153.87L127.655 151.312ZM113.927 154.96V151.96C108.843 151.96 105.034 150.738 102.233 148.56L100.391 150.928L98.5494 153.296C102.661 156.494 107.876 157.96 113.927 157.96V154.96ZM100.391 150.928L102.281 148.598C99.4481 146.3 97.461 143.141 96.385 138.95L93.4793 139.696L90.5735 140.442C91.9295 145.723 94.5504 150.052 98.5011 153.258L100.391 150.928ZM93.4793 139.696L96.385 138.95C95.2955 134.707 95.1799 129.834 96.1469 124.274L93.1913 123.76L90.2356 123.246C89.1546 129.462 89.231 135.213 90.5735 140.442L93.4793 139.696ZM93.1913 123.76L96.1492 124.261L97.2052 118.021L94.2473 117.52L91.2893 117.019L90.2333 123.259L93.1913 123.76ZM94.2473 117.52L97.1984 118.059C98.2357 112.385 99.9585 107.5 102.324 103.36L99.7193 101.872L97.1145 100.384C94.36 105.204 92.4348 110.751 91.2961 116.981L94.2473 117.52ZM99.7193 101.872L102.324 103.36C104.668 99.2586 107.569 96.1888 111.001 94.0503L109.415 91.504L107.829 88.9577C103.454 91.6832 99.8906 95.5254 97.1145 100.384L99.7193 101.872ZM109.415 91.504L111.013 94.0434C114.452 91.8796 118.463 90.76 123.143 90.76V87.76V84.76C117.456 84.76 112.314 86.1363 107.818 88.9646L109.415 91.504ZM123.143 87.76V90.76C128.216 90.76 131.968 92.0068 134.693 94.2177L136.583 91.888L138.473 89.5583C134.414 86.2651 129.207 84.76 123.143 84.76V87.76ZM136.583 91.888L134.714 94.2348C137.605 96.5367 139.614 99.6911 140.686 103.866L143.591 103.12L146.497 102.374C145.137 97.0769 142.473 92.7433 138.452 89.5412L136.583 91.888ZM143.591 103.12L140.698 103.913C141.838 108.073 141.984 112.863 141.021 118.344L143.975 118.864L146.93 119.384C148.014 113.217 147.905 107.511 146.485 102.327L143.591 103.12ZM135.719 113.872L138.674 114.39C140.002 106.82 139.688 100.374 137.129 95.488L134.471 96.88L131.814 98.272C133.479 101.45 133.996 106.332 132.764 113.354L135.719 113.872ZM134.471 96.88L137.146 95.5214C134.465 90.2437 129.481 87.832 123.143 87.832V90.832V93.832C127.813 93.832 130.381 95.4523 131.797 98.2386L134.471 96.88ZM123.143 90.832V87.832C117.278 87.832 112.342 90.1012 108.567 94.5564L110.855 96.496L113.144 98.4356C115.768 95.3388 119.024 93.832 123.143 93.832V90.832ZM110.855 96.496L108.564 94.5599C104.954 98.832 102.606 104.882 101.277 112.389L104.231 112.912L107.185 113.435C108.417 106.478 110.484 101.584 113.147 98.4321L110.855 96.496ZM104.231 112.912L101.277 112.393L98.4925 128.233L101.447 128.752L104.402 129.271L107.186 113.431L104.231 112.912ZM101.447 128.752L98.4916 128.238C97.1667 135.856 97.4467 142.32 99.9245 147.199L102.599 145.84L105.274 144.481C103.656 141.296 103.168 136.368 104.403 129.266L101.447 128.752ZM102.599 145.84L99.9418 147.232C102.683 152.465 107.634 154.888 113.927 154.888V151.888V148.888C109.341 148.888 106.74 147.279 105.257 144.448L102.599 145.84ZM113.927 151.888V154.888C119.843 154.888 124.816 152.629 128.6 148.164L126.311 146.224L124.023 144.284C121.407 147.371 118.123 148.888 113.927 148.888V151.888ZM126.311 146.224L128.6 148.164C132.278 143.824 134.628 137.735 135.894 130.209L132.935 129.712L129.977 129.215C128.81 136.153 126.745 141.072 124.023 144.284L126.311 146.224ZM132.935 129.712L135.89 130.231L138.674 114.391L135.719 113.872L132.765 113.353L129.981 129.193L132.935 129.712Z" fill="url(#paint1_linear_995_14)" mask="url(#path-6-outside-1_995_14)"/>
    </g>
    <g filter="url(#filter1_d_995_14)">
    <mask id="path-8-outside-2_995_14" maskUnits="userSpaceOnUse" x="59" y="45" width="54" height="74" fill="black">
    <rect fill="white" x="59" y="45" width="54" height="74"/>
    <path d="M82.1471 115.96C78.7551 115.96 75.5551 115.448 72.5471 114.424C69.5391 113.4 67.0751 111.608 65.1551 109.048C63.2991 106.488 62.3391 102.968 62.2751 98.488L68.3231 96.568C68.1311 100.856 68.6431 104.184 69.8591 106.552C71.0751 108.92 72.7711 110.584 74.9471 111.544C77.1231 112.44 79.5551 112.888 82.2431 112.888C87.4911 112.888 91.4591 111.704 94.1471 109.336C96.8991 106.904 98.2751 103.64 98.2751 99.544C98.2751 96.6 97.4751 94.168 95.8751 92.248C94.3391 90.328 91.6831 88.6 87.9071 87.064L80.8031 84.28C76.9631 82.744 73.9871 80.6 71.8751 77.848C69.8271 75.096 68.8031 71.672 68.8031 67.576C68.8031 64.184 69.5711 61.08 71.1071 58.264C72.7071 55.384 75.1071 53.08 78.3071 51.352C81.5071 49.624 85.5391 48.76 90.4031 48.76C94.3711 48.76 97.6671 49.368 100.291 50.584C102.979 51.736 105.059 53.304 106.531 55.288C108.003 57.208 108.899 59.352 109.219 61.72C109.539 64.024 109.315 66.328 108.547 68.632L100.195 70.36C101.987 64.536 102.051 59.992 100.387 56.728C98.7231 53.464 95.2671 51.832 90.0191 51.832C85.8591 51.832 82.5311 52.92 80.0351 55.096C77.5391 57.208 76.2911 60.408 76.2911 64.696C76.2911 67.576 76.9951 70.008 78.4031 71.992C79.8751 73.912 82.4671 75.608 86.1791 77.08L93.2831 79.96C97.3151 81.56 100.419 83.672 102.595 86.296C104.771 88.856 105.859 92.12 105.859 96.088C105.859 99.48 104.995 102.712 103.267 105.784C101.603 108.792 99.0111 111.256 95.4911 113.176C91.9711 115.032 87.5231 115.96 82.1471 115.96Z"/>
    </mask>
    <path d="M82.1471 115.96C78.7551 115.96 75.5551 115.448 72.5471 114.424C69.5391 113.4 67.0751 111.608 65.1551 109.048C63.2991 106.488 62.3391 102.968 62.2751 98.488L68.3231 96.568C68.1311 100.856 68.6431 104.184 69.8591 106.552C71.0751 108.92 72.7711 110.584 74.9471 111.544C77.1231 112.44 79.5551 112.888 82.2431 112.888C87.4911 112.888 91.4591 111.704 94.1471 109.336C96.8991 106.904 98.2751 103.64 98.2751 99.544C98.2751 96.6 97.4751 94.168 95.8751 92.248C94.3391 90.328 91.6831 88.6 87.9071 87.064L80.8031 84.28C76.9631 82.744 73.9871 80.6 71.8751 77.848C69.8271 75.096 68.8031 71.672 68.8031 67.576C68.8031 64.184 69.5711 61.08 71.1071 58.264C72.7071 55.384 75.1071 53.08 78.3071 51.352C81.5071 49.624 85.5391 48.76 90.4031 48.76C94.3711 48.76 97.6671 49.368 100.291 50.584C102.979 51.736 105.059 53.304 106.531 55.288C108.003 57.208 108.899 59.352 109.219 61.72C109.539 64.024 109.315 66.328 108.547 68.632L100.195 70.36C101.987 64.536 102.051 59.992 100.387 56.728C98.7231 53.464 95.2671 51.832 90.0191 51.832C85.8591 51.832 82.5311 52.92 80.0351 55.096C77.5391 57.208 76.2911 60.408 76.2911 64.696C76.2911 67.576 76.9951 70.008 78.4031 71.992C79.8751 73.912 82.4671 75.608 86.1791 77.08L93.2831 79.96C97.3151 81.56 100.419 83.672 102.595 86.296C104.771 88.856 105.859 92.12 105.859 96.088C105.859 99.48 104.995 102.712 103.267 105.784C101.603 108.792 99.0111 111.256 95.4911 113.176C91.9711 115.032 87.5231 115.96 82.1471 115.96Z" fill="url(#paint2_linear_995_14)"/>
    <path d="M72.5471 114.424L73.5139 111.584L73.5139 111.584L72.5471 114.424ZM65.1551 109.048L62.7263 110.809L62.7406 110.829L62.7551 110.848L65.1551 109.048ZM62.2751 98.488L61.3674 95.6286L59.2436 96.3028L59.2754 98.5309L62.2751 98.488ZM68.3231 96.568L71.3201 96.7022L71.5124 92.408L67.4154 93.7086L68.3231 96.568ZM69.8591 106.552L72.5278 105.182L72.5278 105.182L69.8591 106.552ZM74.9471 111.544L73.7362 114.289L73.7704 114.304L73.8049 114.318L74.9471 111.544ZM94.1471 109.336L96.1302 111.587L96.1337 111.584L94.1471 109.336ZM95.8751 92.248L93.5325 94.1221L93.5513 94.1455L93.5705 94.1686L95.8751 92.248ZM87.9071 87.064L89.0375 84.2851L89.0197 84.2779L89.0017 84.2708L87.9071 87.064ZM80.8031 84.28L79.689 87.0654L79.6987 87.0693L79.7085 87.0732L80.8031 84.28ZM71.8751 77.848L69.4684 79.639L69.4817 79.6568L69.4952 79.6745L71.8751 77.848ZM71.1071 58.264L68.4847 56.8071L68.479 56.8172L68.4734 56.8274L71.1071 58.264ZM78.3071 51.352L79.7326 53.9917L79.7326 53.9917L78.3071 51.352ZM100.291 50.584L99.0297 53.3059L99.0693 53.3243L99.1094 53.3414L100.291 50.584ZM106.531 55.288L104.122 57.0755L104.136 57.0945L104.15 57.1133L106.531 55.288ZM109.219 61.72L106.246 62.1218L106.248 62.1327L109.219 61.72ZM108.547 68.632L109.155 71.5698L110.847 71.2197L111.393 69.5807L108.547 68.632ZM100.195 70.36L97.3278 69.4777L95.8362 74.3254L100.803 73.2978L100.195 70.36ZM80.0351 55.096L81.973 57.3862L81.9898 57.3719L82.0065 57.3573L80.0351 55.096ZM78.4031 71.992L75.9566 73.7282L75.9886 73.7734L76.0223 73.8173L78.4031 71.992ZM86.1791 77.08L87.3062 74.2998L87.2956 74.2955L87.285 74.2913L86.1791 77.08ZM93.2831 79.96L92.156 82.7402L92.1663 82.7444L92.1766 82.7485L93.2831 79.96ZM102.595 86.296L100.286 88.211L100.297 88.225L100.309 88.2389L102.595 86.296ZM103.267 105.784L100.652 104.313L100.647 104.322L100.642 104.332L103.267 105.784ZM95.4911 113.176L96.8904 115.83L96.9091 115.82L96.9277 115.81L95.4911 113.176ZM82.1471 115.96V112.96C79.0617 112.96 76.1902 112.495 73.5139 111.584L72.5471 114.424L71.5803 117.264C74.9201 118.401 78.4485 118.96 82.1471 118.96V115.96ZM72.5471 114.424L73.5139 111.584C71.0817 110.756 69.1156 109.329 67.5551 107.248L65.1551 109.048L62.7551 110.848C65.0346 113.887 67.9965 116.044 71.5803 117.264L72.5471 114.424ZM65.1551 109.048L67.584 107.287C66.2133 105.397 65.3335 102.556 65.2748 98.4451L62.2751 98.488L59.2754 98.5309C59.3447 103.38 60.3849 107.579 62.7263 110.809L65.1551 109.048ZM62.2751 98.488L63.1829 101.347L69.2309 99.4274L68.3231 96.568L67.4154 93.7086L61.3674 95.6286L62.2751 98.488ZM68.3231 96.568L65.3261 96.4338C65.1236 100.956 65.6322 104.888 67.1904 107.922L69.8591 106.552L72.5278 105.182C71.654 103.48 71.1386 100.756 71.3201 96.7022L68.3231 96.568ZM69.8591 106.552L67.1904 107.922C68.6808 110.825 70.8559 113.018 73.7362 114.289L74.9471 111.544L76.158 108.799C74.6863 108.15 73.4695 107.015 72.5278 105.182L69.8591 106.552ZM74.9471 111.544L73.8049 114.318C76.3911 115.383 79.2186 115.888 82.2431 115.888V112.888V109.888C79.8916 109.888 77.8552 109.497 76.0894 108.77L74.9471 111.544ZM82.2431 112.888V115.888C87.8888 115.888 92.6878 114.62 96.1302 111.587L94.1471 109.336L92.164 107.085C90.2304 108.788 87.0934 109.888 82.2431 109.888V112.888ZM94.1471 109.336L96.1337 111.584C99.6087 108.513 101.275 104.389 101.275 99.544H98.2751H95.2751C95.2751 102.891 94.1896 105.295 92.1605 107.088L94.1471 109.336ZM98.2751 99.544H101.275C101.275 96.0291 100.306 92.8793 98.1798 90.3274L95.8751 92.248L93.5705 94.1686C94.6439 95.4567 95.2751 97.1709 95.2751 99.544H98.2751ZM95.8751 92.248L98.2177 90.3739C96.216 87.8717 93.0114 85.9016 89.0375 84.2851L87.9071 87.064L86.7767 89.8429C90.3549 91.2984 92.4623 92.7843 93.5325 94.1221L95.8751 92.248ZM87.9071 87.064L89.0017 84.2708L81.8977 81.4868L80.8031 84.28L79.7085 87.0732L86.8125 89.8572L87.9071 87.064ZM80.8031 84.28L81.9173 81.4946C78.481 80.12 75.9808 78.2703 74.2551 76.0215L71.8751 77.848L69.4952 79.6745C71.9934 82.9297 75.4453 85.368 79.689 87.0654L80.8031 84.28ZM71.8751 77.848L74.2818 76.057C72.6895 73.9172 71.8031 71.1556 71.8031 67.576H68.8031H65.8031C65.8031 72.1884 66.9648 76.2748 69.4684 79.639L71.8751 77.848ZM68.8031 67.576H71.8031C71.8031 64.6561 72.4591 62.0504 73.7408 59.7006L71.1071 58.264L68.4734 56.8274C66.6832 60.1096 65.8031 63.7118 65.8031 67.576H68.8031ZM71.1071 58.264L73.7296 59.7209C75.0231 57.3926 76.9821 55.477 79.7326 53.9917L78.3071 51.352L76.8817 48.7123C73.2322 50.683 70.3911 53.3754 68.4847 56.8071L71.1071 58.264ZM78.3071 51.352L79.7326 53.9917C82.3718 52.5665 85.8755 51.76 90.4031 51.76V48.76V45.76C85.2028 45.76 80.6424 46.6815 76.8817 48.7123L78.3071 51.352ZM90.4031 48.76V51.76C94.0881 51.76 96.9194 52.328 99.0297 53.3059L100.291 50.584L101.553 47.8621C98.4149 46.408 94.6542 45.76 90.4031 45.76V48.76ZM100.291 50.584L99.1094 53.3414C101.4 54.323 103.02 55.5901 104.122 57.0755L106.531 55.288L108.94 53.5005C107.098 51.0178 104.558 49.149 101.473 47.8266L100.291 50.584ZM106.531 55.288L104.15 57.1133C105.308 58.6239 105.997 60.2785 106.246 62.1218L109.219 61.72L112.192 61.3182C111.801 58.4255 110.698 55.7921 108.912 53.4627L106.531 55.288ZM109.219 61.72L106.248 62.1327C106.501 63.959 106.33 65.7975 105.701 67.6833L108.547 68.632L111.393 69.5807C112.301 66.8585 112.577 64.089 112.191 61.3073L109.219 61.72ZM108.547 68.632L107.939 65.6942L99.5873 67.4222L100.195 70.36L100.803 73.2978L109.155 71.5698L108.547 68.632ZM100.195 70.36L103.062 71.2423C104.94 65.1387 105.25 59.6621 103.06 55.3654L100.387 56.728L97.7144 58.0906C98.852 60.3219 99.0338 63.9333 97.3278 69.4777L100.195 70.36ZM100.387 56.728L103.06 55.3654C100.673 50.6842 95.8421 48.832 90.0191 48.832V51.832V54.832C94.6922 54.832 96.7729 56.2438 97.7144 58.0906L100.387 56.728ZM90.0191 51.832V48.832C85.3263 48.832 81.2352 50.0698 78.0637 52.8347L80.0351 55.096L82.0065 57.3573C83.8271 55.7702 86.392 54.832 90.0191 54.832V51.832ZM80.0351 55.096L78.0973 52.8058C74.7318 55.6535 73.2911 59.8191 73.2911 64.696H76.2911H79.2911C79.2911 60.9969 80.3464 58.7625 81.973 57.3862L80.0351 55.096ZM76.2911 64.696H73.2911C73.2911 68.0808 74.1261 71.1489 75.9566 73.7282L78.4031 71.992L80.8496 70.2558C79.8641 68.8671 79.2911 67.0712 79.2911 64.696H76.2911ZM78.4031 71.992L76.0223 73.8173C77.9743 76.3633 81.15 78.313 85.0732 79.8687L86.1791 77.08L87.285 74.2913C83.7843 72.903 81.776 71.4607 80.7839 70.1667L78.4031 71.992ZM86.1791 77.08L85.052 79.8602L92.156 82.7402L93.2831 79.96L94.4102 77.1798L87.3062 74.2998L86.1791 77.08ZM93.2831 79.96L92.1766 82.7485C95.8654 84.2123 98.5071 86.066 100.286 88.211L102.595 86.296L104.904 84.381C102.331 81.278 98.7648 78.9077 94.3897 77.1715L93.2831 79.96ZM102.595 86.296L100.309 88.2389C101.944 90.1616 102.859 92.6965 102.859 96.088H105.859H108.859C108.859 91.5435 107.599 87.5504 104.881 84.3531L102.595 86.296ZM105.859 96.088H102.859C102.859 98.9442 102.138 101.672 100.652 104.313L103.267 105.784L105.882 107.255C107.852 103.752 108.859 100.016 108.859 96.088H105.859ZM103.267 105.784L100.642 104.332C99.2972 106.763 97.159 108.849 94.0546 110.542L95.4911 113.176L96.9277 115.81C100.863 113.663 103.909 110.821 105.892 107.236L103.267 105.784ZM95.4911 113.176L94.0919 110.522C91.1278 112.085 87.199 112.96 82.1471 112.96V115.96V118.96C87.8472 118.96 92.8145 117.979 96.8904 115.83L95.4911 113.176Z" fill="url(#paint3_linear_995_14)" mask="url(#path-8-outside-2_995_14)"/>
    </g>
    <defs>
    <filter id="filter0_d_995_14" x="85.4891" y="84.76" width="66.1688" height="81.2" filterUnits="userSpaceOnUse" color-interpolation-filters="sRGB">
    <feFlood flood-opacity="0" result="BackgroundImageFix"/>
    <feColorMatrix in="SourceAlpha" type="matrix" values="0 0 0 0 0 0 0 0 0 0 0 0 0 0 0 0 0 0 127 0" result="hardAlpha"/>
    <feOffset dy="4"/>
    <feGaussianBlur stdDeviation="2"/>
    <feComposite in2="hardAlpha" operator="out"/>
    <feColorMatrix type="matrix" values="0 0 0 0 0 0 0 0 0 0 0 0 0 0 0 0 0 0 0.25 0"/>
    <feBlend mode="normal" in2="BackgroundImageFix" result="effect1_dropShadow_995_14"/>
    <feBlend mode="normal" in="SourceGraphic" in2="effect1_dropShadow_995_14" result="shape"/>
    </filter>
    <filter id="filter1_d_995_14" x="55.2436" y="45.76" width="61.1167" height="81.2" filterUnits="userSpaceOnUse" color-interpolation-filters="sRGB">
    <feFlood flood-opacity="0" result="BackgroundImageFix"/>
    <feColorMatrix in="SourceAlpha" type="matrix" values="0 0 0 0 0 0 0 0 0 0 0 0 0 0 0 0 0 0 127 0" result="hardAlpha"/>
    <feOffset dy="4"/>
    <feGaussianBlur stdDeviation="2"/>
    <feComposite in2="hardAlpha" operator="out"/>
    <feColorMatrix type="matrix" values="0 0 0 0 0 0 0 0 0 0 0 0 0 0 0 0 0 0 0.25 0"/>
    <feBlend mode="normal" in2="BackgroundImageFix" result="effect1_dropShadow_995_14"/>
    <feBlend mode="normal" in="SourceGraphic" in2="effect1_dropShadow_995_14" result="shape"/>
    </filter>
    <linearGradient id="paint0_linear_995_14" x1="117" y1="60" x2="117" y2="175" gradientUnits="userSpaceOnUse">
    <stop stop-color="#FF0000"/>
    <stop offset="1" stop-color="white"/>
    </linearGradient>
    <linearGradient id="paint1_linear_995_14" x1="117" y1="60" x2="117" y2="175" gradientUnits="userSpaceOnUse">
    <stop/>
    <stop offset="1" stop-color="#FF0004"/>
    </linearGradient>
    <linearGradient id="paint2_linear_995_14" x1="85.5" y1="21" x2="85.5" y2="136" gradientUnits="userSpaceOnUse">
    <stop stop-color="#FF0000"/>
    <stop offset="1" stop-color="white"/>
    </linearGradient>
    <linearGradient id="paint3_linear_995_14" x1="85.5" y1="21" x2="85.5" y2="136" gradientUnits="userSpaceOnUse">
    <stop/>
    <stop offset="1" stop-color="#FF0004"/>
    </linearGradient>
    </defs>
    </svg>